<?xml version="1.0" standalone="no"?>
<!DOCTYPE svg PUBLIC "-//W3C//DTD SVG 20010904//EN"
 "http://www.w3.org/TR/2001/REC-SVG-20010904/DTD/svg10.dtd">
<svg version="1.0" xmlns="http://www.w3.org/2000/svg"
 width="30px" height="30px" viewBox="0 0 30 30"
 preserveAspectRatio="xMidYMid meet">

<g transform="translate(0.000000,30.000000) scale(0.100000,-0.100000)"
fill="#000000" stroke="none">
<path d="M90 278 c-34 -18 -51 -35 -69 -71 -21 -44 -22 -51 -11 -92 23 -83
107 -131 184 -105 45 14 93 69 102 115 10 54 -29 124 -86 153 -24 12 -51 22
-60 22 -9 0 -36 -10 -60 -22z m86 -33 c4 -9 13 -13 24 -10 20 7 45 -19 37 -39
-3 -8 1 -17 9 -20 19 -7 18 -45 -1 -52 -9 -4 -13 -13 -10 -24 7 -20 -19 -45
-39 -37 -8 3 -17 -1 -20 -9 -7 -18 -45 -18 -52 0 -3 8 -13 12 -23 9 -21 -5
-45 21 -38 41 3 8 -1 17 -9 20 -19 7 -18 45 1 52 9 4 13 13 10 24 -7 20 19 45
39 37 8 -3 17 1 20 9 7 19 45 18 52 -1z"/>
</g>
</svg>
